<?xml version="1.0" encoding="UTF-8" standalone="no"?>
<svg
   xmlns:dc="http://purl.org/dc/elements/1.1/"
   xmlns:cc="http://creativecommons.org/ns#"
   xmlns:rdf="http://www.w3.org/1999/02/22-rdf-syntax-ns#"
   xmlns:svg="http://www.w3.org/2000/svg"
   xmlns="http://www.w3.org/2000/svg"
   xmlns:sodipodi="http://sodipodi.sourceforge.net/DTD/sodipodi-0.dtd"
   xmlns:inkscape="http://www.inkscape.org/namespaces/inkscape"
   sodipodi:docname="Logo.svg"
   inkscape:version="1.0 (4035a4fb49, 2020-05-01)"
   id="svg8"
   version="1.1"
   viewBox="0 0 210 297"
   height="297mm"
   width="210mm">
  <defs
     id="defs2">
    <inkscape:path-effect
       bendpath-nodetypes="cc"
       hide_knot="false"
       vertical="false"
       scale_y_rel="false"
       prop_scale="1.2812255"
       bendpath="m 24.268433,78.026391 c 39.453659,16.004549 54.523724,15.704122 88.424577,0"
       lpeversion="1"
       is_visible="true"
       id="path-effect972"
       effect="bend_path" />
    <inkscape:path-effect
       bendpath4="M 24.268433,67.308699 V 88.744083"
       bendpath3="M 24.268433,88.744083 H 112.69301"
       bendpath2="M 112.69301,67.308699 V 88.744083"
       bendpath1="M 24.268433,67.308699 H 112.69301"
       xx="true"
       yy="true"
       lpeversion="1"
       is_visible="true"
       id="path-effect970"
       effect="envelope" />
    <inkscape:path-effect
       visualbounds="true"
       linkedpath=""
       lpeversion="1"
       is_visible="true"
       id="path-effect948"
       effect="bounding_box" />
    <inkscape:path-effect
       lock_angle="false"
       lock_length="false"
       flip_horizontal="false"
       flip_vertical="false"
       from_original_width="false"
       elastic="false"
       offset="0"
       stretch="1"
       helper_size="3"
       last_knot="1"
       first_knot="1"
       lpeversion="1"
       is_visible="true"
       id="path-effect944"
       effect="transform_2pts"
       start="24.268433,78.026391"
       end="112.69301,78.026391" />
  </defs>
  <sodipodi:namedview
     inkscape:window-maximized="0"
     inkscape:window-y="48"
     inkscape:window-x="391"
     inkscape:window-height="1009"
     inkscape:window-width="1375"
     showgrid="false"
     inkscape:document-rotation="0"
     inkscape:current-layer="g942"
     inkscape:document-units="mm"
     inkscape:cy="332.74719"
     inkscape:cx="400.18749"
     inkscape:zoom="2.8"
     inkscape:pageshadow="2"
     inkscape:pageopacity="0.0"
     borderopacity="1.0"
     bordercolor="#666666"
     pagecolor="#ffffff"
     id="base" />
  <metadata
     id="metadata5">
    <rdf:RDF>
      <cc:Work
         rdf:about="">
        <dc:format>image/svg+xml</dc:format>
        <dc:type
           rdf:resource="http://purl.org/dc/dcmitype/StillImage" />
        <dc:title></dc:title>
      </cc:Work>
    </rdf:RDF>
  </metadata>
  <g
     id="layer1"
     inkscape:groupmode="layer"
     inkscape:label="Layer 1">
    <g
       inkscape:path-effect="#path-effect944"
       id="g942">
      <g
         inkscape:export-ydpi="900"
         inkscape:export-xdpi="900"
         inkscape:path-effect="#path-effect972"
         id="g968">
        <g
           style="font-size:4.9389px;line-height:1.25;font-family:Belgium;-inkscape-font-specification:Belgium;letter-spacing:0px;word-spacing:0px;fill:#d45500;stroke:#d45500;stroke-width:0.5;stroke-miterlimit:4;stroke-dasharray:none"
           id="text835"
           aria-label="Attacker">
          <path
             id="path841"
             style="font-style:normal;font-variant:normal;font-weight:normal;font-stretch:normal;font-size:25.4px;font-family:Impact;-inkscape-font-specification:Impact;fill:#d45500;stroke:#d45500;stroke-width:0.5;stroke-miterlimit:4;stroke-dasharray:none"
             d="m 42.05245,64.629646 c -1.890351,7.758055 -3.68679,15.542676 -5.36378,23.358766 -1.725071,-0.607098 -3.428922,-1.232779 -5.112924,-1.871201 0.424166,-1.364111 0.849673,-2.727779 1.276488,-4.091011 -0.580167,-0.220736 -1.1585,-0.443139 -1.73506,-0.66696 -0.611504,1.292252 -1.224277,2.583956 -1.838269,3.875122 -1.68547,-0.656375 -3.351266,-1.323052 -4.998807,-1.993983 3.783957,-7.02122 7.538248,-14.061083 11.243096,-21.124974 2.191999,0.870279 4.36713,1.713856 6.529256,2.514241 z M 34.21766,78.03168 c 0.718747,-2.610961 1.669741,-5.808179 2.858342,-9.59389 -2.114292,4.094729 -3.590932,7.01852 -4.488456,8.966403 0.542276,0.210641 1.085631,0.419876 1.630114,0.627487 z"
             inkscape:original-d="m 35.004729,68.367032 2.988965,20.079394 h -5.34541 l -0.26045,-3.609082 h -1.872753 l -0.310059,3.609082 H 24.7976 l 2.654102,-20.079394 z m -2.765723,12.91084 q -0.396875,-3.410645 -0.79375,-8.421191 -0.79375,5.754687 -0.992187,8.421191 z" />
          <path
             id="path843"
             style="font-style:normal;font-variant:normal;font-weight:normal;font-stretch:normal;font-size:25.4px;font-family:Impact;-inkscape-font-specification:Impact;fill:#d45500;stroke:#d45500;stroke-width:0.5;stroke-miterlimit:4;stroke-dasharray:none"
             d="m 49.239477,68.894312 -0.92164,2.927741 c 0.395697,0.124687 0.791471,0.247442 1.187344,0.368168 l -0.899539,2.949872 c -0.404934,-0.123486 -0.809544,-0.248947 -1.213855,-0.376289 l -3.130932,9.945918 c -0.385232,1.223754 -0.547646,1.921131 -0.48655,2.09458 0.0687,0.174745 0.503434,0.389768 1.30753,0.633733 L 44.1695,90.445413 c -0.676239,-0.205182 -1.349165,-0.414208 -2.018852,-0.626763 -1.131386,-0.359096 -1.920519,-0.678447 -2.362815,-0.938816 -0.441507,-0.27102 -0.778462,-0.65904 -1.009822,-1.162293 -0.228181,-0.51251 -0.299097,-1.029453 -0.21651,-1.550046 0.08604,-0.531359 0.447136,-1.709374 1.084213,-3.542574 l 3.250588,-9.353623 C 42.57513,73.159544 42.254095,73.046815 41.93319,72.933159 l 1.02901,-2.909012 c 0.315644,0.111915 0.631272,0.22287 0.946896,0.332816 l 1.007971,-2.900455 c 1.443582,0.503446 2.884006,0.98433 4.32241,1.437804 z"
             inkscape:original-d="m 44.021233,69.793302 v 2.592089 h 1.351855 v 2.604493 h -1.351855 v 8.805664 q 0,1.624707 0.16123,1.810742 0.173633,0.186035 1.401465,0.186035 v 2.654101 h -2.021582 q -1.711523,0 -2.443262,-0.136425 -0.731738,-0.148829 -1.289843,-0.657325 -0.558106,-0.520898 -0.694531,-1.178222 -0.136426,-0.669727 -0.136426,-3.125391 V 74.989884 H 37.91928 v -2.604493 h 1.079004 v -2.592089 z" />
          <path
             id="path845"
             style="font-style:normal;font-variant:normal;font-weight:normal;font-stretch:normal;font-size:25.4px;font-family:Impact;-inkscape-font-specification:Impact;fill:#d45500;stroke:#d45500;stroke-width:0.5;stroke-miterlimit:4;stroke-dasharray:none"
             d="m 55.865511,70.771669 -0.748531,2.979806 c 0.394106,0.09802 0.788114,0.19357 1.181978,0.286486 l -0.712654,3.004718 c -0.40742,-0.09636 -0.81458,-0.195465 -1.221437,-0.29714 l -2.542856,10.122787 c -0.31291,1.245653 -0.432885,1.952253 -0.358646,2.12317 0.08176,0.171087 0.54173,0.366145 1.384191,0.565144 l -0.719736,3.063583 c -0.715077,-0.169184 -1.424943,-0.345774 -2.129451,-0.529206 -0.311616,-0.08109 -0.598409,-0.161208 -0.859819,-0.23937 -0.730314,-0.216256 -1.268933,-0.417936 -1.613676,-0.596572 -0.465449,-0.251976 -0.830752,-0.626121 -1.094196,-1.120092 -0.26074,-0.503393 -0.360848,-1.017807 -0.30511,-1.542185 0.05872,-0.535787 0.361888,-1.728621 0.910171,-3.589979 l 2.796856,-9.495003 c -0.32374,-0.0953 -0.647262,-0.191925 -0.970574,-0.289818 l 0.893773,-2.951625 c 0.316006,0.09567 0.632077,0.190042 0.948226,0.283058 l 0.867273,-2.944296 c 1.06859,0.314215 2.1364,0.611812 3.203899,0.890795 0.363866,0.09395 0.727319,0.185917 1.090319,0.275739 z"
             inkscape:original-d="m 51.760296,69.793302 v 2.592089 h 1.351856 v 2.604493 h -1.351856 v 8.805664 q 0,1.624707 0.161231,1.810742 0.173632,0.186035 1.401464,0.186035 v 2.654101 h -2.021582 q -1.711523,0 -2.443261,-0.136425 -0.731739,-0.148829 -1.289844,-0.657325 -0.558105,-0.520898 -0.694531,-1.178222 -0.136426,-0.669727 -0.136426,-3.125391 v -8.359179 h -1.079004 v -2.604493 h 1.079004 v -2.592089 z" />
          <path
             id="path847"
             style="font-style:normal;font-variant:normal;font-weight:normal;font-stretch:normal;font-size:25.4px;font-family:Impact;-inkscape-font-specification:Impact;fill:#d45500;stroke:#d45500;stroke-width:0.5;stroke-miterlimit:4;stroke-dasharray:none"
             d="m 59.963469,82.024167 c -1.497433,-0.257895 -2.98765,-0.559059 -4.468786,-0.89635 l 0.290587,-1.276225 c 0.33473,-1.470095 0.727729,-2.576467 1.163136,-3.310869 0.44658,-0.745048 1.126136,-1.336201 2.02365,-1.793984 0.89733,-0.457691 1.941186,-0.574825 3.154795,-0.377769 1.452929,0.235915 2.492739,0.720393 3.162649,1.513177 0.668468,0.780136 1.052281,1.688013 1.121466,2.73417 0.06907,1.022544 -0.01982,3.174496 -0.278078,6.368927 l -0.787743,9.74346 C 63.48487,94.580168 61.649772,94.369043 59.841934,94.10328 l 0.25718,-1.714581 c -0.436859,0.638777 -0.954822,1.089979 -1.550695,1.350656 -0.584593,0.252254 -1.250337,0.312949 -1.984768,0.177136 -0.960827,-0.17769 -1.781983,-0.639683 -2.446755,-1.374522 -0.656639,-0.745653 -0.747985,-2.078008 -0.31023,-4.000576 l 0.355887,-1.563017 c 0.323955,-1.422773 0.739636,-2.351777 1.232242,-2.783015 0.499897,-0.437623 1.559446,-0.823485 3.182607,-1.240382 1.725631,-0.45206 2.65104,-0.850185 2.797402,-1.087623 0.151068,-0.245072 0.286034,-0.768138 0.40816,-1.572646 0.152725,-1.006074 0.191041,-1.671349 0.117598,-1.988912 -0.06473,-0.327363 -0.230416,-0.511878 -0.498565,-0.555805 -0.305425,-0.05003 -0.517581,0.04741 -0.637134,0.295482 -0.117349,0.237284 -0.269869,0.894235 -0.454415,1.965163 -0.11566,0.671176 -0.23132,1.342352 -0.346979,2.013529 z m 1.11823,2.89013 c -0.902469,0.568467 -1.468229,1.058637 -1.681755,1.502035 -0.203706,0.441726 -0.382699,1.098795 -0.53233,1.96711 -0.171554,0.995532 -0.226025,1.645627 -0.161394,1.9555 0.07316,0.310297 0.286468,0.495305 0.639835,0.551652 0.335709,0.05353 0.570119,-0.02512 0.70132,-0.232991 0.142068,-0.217067 0.285164,-0.808212 0.432295,-1.777436 z"
             inkscape:original-d="m 58.693205,78.363321 h -4.700488 v -1.103809 q 0,-1.90996 0.434082,-2.939355 0.446484,-1.041797 1.773535,-1.835547 1.327051,-0.79375 3.447852,-0.79375 2.54248,0 3.832324,0.905371 1.289844,0.892969 1.550293,2.207617 0.260449,1.302247 0.260449,5.382618 v 8.25996 H 60.417131 V 86.98295 q -0.458887,0.880566 -1.190625,1.327051 -0.719336,0.434082 -1.723926,0.434082 -1.314648,0 -2.418457,-0.731739 -1.091406,-0.74414 -1.091406,-3.237011 v -1.351856 q 0,-1.847949 0.58291,-2.517675 0.58291,-0.669727 2.889746,-1.562696 2.468067,-0.967383 2.641699,-1.302246 0.173633,-0.334863 0.173633,-1.364258 0,-1.289843 -0.198437,-1.674316 -0.186035,-0.396875 -0.63252,-0.396875 -0.508496,0 -0.632519,0.334863 -0.124024,0.322461 -0.124024,1.699121 z m 1.5875,2.257227 q -1.203027,0.880566 -1.401465,1.475878 -0.186035,0.595313 -0.186035,1.711524 0,1.277441 0.161231,1.649512 0.173632,0.37207 0.669726,0.37207 0.471289,0 0.607715,-0.285254 0.148828,-0.297656 0.148828,-1.537891 z" />
          <path
             id="path849"
             style="font-style:normal;font-variant:normal;font-weight:normal;font-stretch:normal;font-size:25.4px;font-family:Impact;-inkscape-font-specification:Impact;fill:#d45500;stroke:#d45500;stroke-width:0.5;stroke-miterlimit:4;stroke-dasharray:none"
             d="m 78.674076,82.34888 c -1.510758,0.195651 -3.028199,0.336542 -4.549488,0.417002 l -0.11858,-2.243081 c -0.04129,-0.780959 -0.11882,-1.307992 -0.229034,-1.575938 -0.111136,-0.27877 -0.295161,-0.41173 -0.553559,-0.401618 -0.258421,0.01011 -0.427984,0.137328 -0.509976,0.384655 -0.08159,0.24612 -0.11218,0.797455 -0.08889,1.647833 l 0.251774,9.189562 c 0.01906,0.695502 0.114631,1.215465 0.291774,1.562931 0.176438,0.336902 0.428737,0.499481 0.753169,0.485209 0.380132,-0.01672 0.625102,-0.211703 0.733762,-0.580172 0.118297,-0.370469 0.146314,-1.055917 0.08862,-2.063578 l -0.132588,-2.315767 c 1.539369,-0.08869 3.070591,-0.233344 4.591276,-0.42917 0.191903,1.54777 0.289848,2.708844 0.290844,3.501092 0.0086,0.777353 -0.19133,1.609206 -0.624051,2.484919 -0.424888,0.865538 -1.053865,1.552017 -1.887626,2.044625 -0.834587,0.482862 -1.913246,0.765639 -3.220765,0.818307 -0.891944,0.03597 -1.692257,-0.02903 -2.389762,-0.185947 -0.603686,-0.143331 -1.126634,-0.354845 -1.567784,-0.629447 -0.948785,-0.600506 -1.581688,-1.433848 -1.917909,-2.478814 -0.328021,-1.059005 -0.423532,-2.527075 -0.316123,-4.426163 l 0.31245,-5.524414 c 0.09314,-1.646758 0.296822,-2.893034 0.588787,-3.716724 0.293508,-0.82804 0.855188,-1.5493 1.654096,-2.190878 0.368146,-0.300079 0.7637,-0.533196 1.189389,-0.702067 0.495919,-0.19321 1.034845,-0.297586 1.626648,-0.318375 1.089719,-0.03828 2.041151,0.218249 2.894661,0.79773 0.851761,0.578292 1.488003,1.333638 1.883107,2.291378 0.392905,0.952405 0.721208,2.346257 0.95577,4.15691 z"
             inkscape:original-d="m 78.090471,78.202091 h -4.725293 v -1.897559 q 0,-0.992187 -0.16123,-1.339453 -0.161231,-0.359668 -0.595313,-0.359668 -0.434082,0 -0.58291,0.310059 -0.148828,0.310058 -0.148828,1.389062 v 7.763867 q 0,0.880567 0.223242,1.327051 0.223242,0.434082 0.657324,0.434082 0.508496,0 0.682129,-0.458887 0.186035,-0.458887 0.186035,-1.736328 v -1.95957 h 4.464844 q -0.0124,1.971972 -0.148828,2.96416 -0.124023,0.979785 -0.830957,2.021582 -0.694531,1.029394 -1.823145,1.562695 -1.128613,0.520899 -2.790527,0.520899 -2.120801,0 -3.361035,-0.719336 -1.240234,-0.731739 -1.761133,-2.033985 -0.508496,-1.314648 -0.508496,-3.720703 v -4.675683 q 0,-2.095996 0.42168,-3.162598 0.42168,-1.066601 1.79834,-1.897558 1.37666,-0.84336 3.348632,-0.84336 1.959571,0 3.348633,0.830957 1.389063,0.830957 1.847949,2.095996 0.458887,1.265039 0.458887,3.584278 z" />
          <path
             id="path851"
             style="font-style:normal;font-variant:normal;font-weight:normal;font-stretch:normal;font-size:25.4px;font-family:Impact;-inkscape-font-specification:Impact;fill:#d45500;stroke:#d45500;stroke-width:0.5;stroke-miterlimit:4;stroke-dasharray:none"
             d="m 88.12887,72.772298 c 0.06947,1.091066 0.130263,2.183805 0.182004,3.278278 0.07641,1.566351 0.131462,3.136993 0.164099,4.711283 0.84656,1.604737 1.717302,3.199303 2.610906,4.783152 1.07336,1.911224 2.175566,3.809288 3.304405,5.694923 -0.499581,0.155282 -1.001653,0.307765 -1.506258,0.457284 -1.201669,0.356341 -2.417996,0.68782 -3.647942,0.992344 -1.24825,-2.609075 -2.44398,-5.237777 -3.583622,-7.884578 l 1.869242,8.289437 C 85.680292,93.50822 83.81001,93.860716 81.91424,94.145139 L 78.333987,70.63349 c 1.310632,-0.20352 2.629058,-0.458471 3.951897,-0.758094 l 2.199109,9.752277 c 0.06224,-1.963249 0.08478,-3.922989 0.06987,-5.87785 0.954668,-0.235653 1.908133,-0.492044 2.859357,-0.767097 0.238299,-0.06897 0.476516,-0.139119 0.714656,-0.210428 z"
             inkscape:original-d="m 90.356388,71.988516 -2.033985,6.56084 2.641699,9.89707 h -4.824511 l -1.562696,-7.168554 v 7.168554 H 79.566349 V 68.367032 h 5.010546 v 8.433594 l 1.562696,-4.81211 z" />
          <path
             id="path853"
             style="font-style:normal;font-variant:normal;font-weight:normal;font-stretch:normal;font-size:25.4px;font-family:Impact;-inkscape-font-specification:Impact;fill:#d45500;stroke:#d45500;stroke-width:0.5;stroke-miterlimit:4;stroke-dasharray:none"
             d="m 102.83991,78.155187 c -1.96027,0.814284 -3.941639,1.594054 -5.947831,2.324535 l 1.443182,3.959858 c 0.30187,0.828275 0.547772,1.342106 0.740043,1.54342 0.191866,0.200892 0.43724,0.246886 0.734442,0.136859 0.369494,-0.136785 0.554714,-0.384541 0.556474,-0.740861 0.006,-0.369174 -0.16329,-1.005396 -0.50757,-1.912193 L 98.946279,81.06373 c 1.473551,-0.558484 2.932721,-1.140875 4.378991,-1.741372 l 0.55308,1.330034 c 0.46305,1.113521 0.75701,1.992628 0.88081,2.641985 0.1313,0.644806 0.11598,1.399971 -0.0555,2.262356 -0.17149,0.862889 -0.54164,1.608696 -1.11378,2.233363 -0.56712,0.611801 -1.3934,1.125923 -2.47968,1.528534 -1.05381,0.390572 -2.057875,0.555392 -2.995049,0.496432 -0.937732,-0.05899 -1.736539,-0.314152 -2.390935,-0.758805 -0.649396,-0.456915 -1.172361,-1.018913 -1.573851,-1.682351 -0.40535,-0.674256 -0.821004,-1.699329 -1.256758,-3.083194 L 91.18666,78.869733 c -0.510805,-1.622211 -0.738397,-2.96236 -0.696774,-4.000483 0.03874,-1.050241 0.355437,-1.945884 0.944623,-2.693817 0.586896,-0.758297 1.359262,-1.310892 2.335039,-1.672241 1.193396,-0.441938 2.288712,-0.529844 3.302244,-0.248899 1.016786,0.268966 1.886165,0.816454 2.602113,1.655478 0.717945,0.825325 1.447165,2.112085 2.172675,3.856786 0.3311,0.79621 0.66219,1.592421 0.99328,2.38863 z M 97.126184,77.009674 96.62319,75.676708 c -0.355856,-0.943041 -0.626491,-1.538166 -0.809267,-1.782545 -0.183198,-0.244942 -0.397234,-0.321167 -0.642865,-0.229814 -0.303401,0.11284 -0.447755,0.301011 -0.43293,0.566744 0.01143,0.255733 0.204794,0.900461 0.580026,1.930038 l 0.487766,1.338349 c 0.440956,-0.16072 0.881029,-0.324046 1.320264,-0.489806 z"
             inkscape:original-d="m 103.06879,80.508927 h -6.486426 v 3.559472 q 0,1.116211 0.161231,1.438672 0.16123,0.322461 0.620117,0.322461 0.570508,0 0.756543,-0.42168 0.198437,-0.434082 0.198437,-1.661914 v -2.17041 h 4.750098 v 1.21543 q 0,1.525488 -0.19844,2.344043 -0.18603,0.818554 -0.89297,1.74873 -0.70693,0.930176 -1.79834,1.401465 -1.079,0.458887 -2.716109,0.458887 -1.5875,0 -2.80293,-0.458887 -1.21543,-0.458887 -1.897559,-1.252637 -0.669726,-0.806152 -0.930175,-1.761133 -0.26045,-0.967382 -0.26045,-2.802929 V 77.66879 q 0,-2.158008 0.582911,-3.398242 0.58291,-1.252637 1.90996,-1.909961 1.327051,-0.669727 3.050977,-0.669727 2.108398,0 3.472655,0.806153 1.37666,0.79375 1.92236,2.1208 0.55811,1.314649 0.55811,3.708301 z M 98.045841,77.83002 v -1.203027 q 0,-1.277441 -0.136426,-1.649512 -0.136426,-0.37207 -0.558106,-0.37207 -0.520898,0 -0.644921,0.322461 -0.124024,0.310058 -0.124024,1.699121 v 1.203027 z" />
          <path
             id="path855"
             style="font-style:normal;font-variant:normal;font-weight:normal;font-stretch:normal;font-size:25.4px;font-family:Impact;-inkscape-font-specification:Impact;fill:#d45500;stroke:#d45500;stroke-width:0.5;stroke-miterlimit:4;stroke-dasharray:none"
             d="m 104.65319,66.351591 c 0.29471,0.80248 0.58891,1.605195 0.88257,2.408147 -0.12487,-1.954204 0.37256,-3.245059 1.51385,-3.889115 l 2.88267,6.226878 c -0.80198,0.371094 -1.33055,0.774363 -1.5858,1.213942 -0.25514,0.43938 -0.31813,0.919845 -0.18731,1.44157 0.12655,0.511873 0.57996,1.631971 1.35911,3.354564 l 3.17473,7.018849 c -1.5328,0.695685 -3.08917,1.383174 -4.6708,2.055655 l -7.65269,-17.944706 c 1.42511,-0.608923 2.85243,-1.239788 4.28367,-1.885784 z"
             inkscape:original-d="m 109.72885,71.988516 -0.19844,2.158008 q 1.09141,-2.319238 3.1626,-2.455664 v 5.791895 q -1.37666,0 -2.02158,0.37207 -0.64492,0.37207 -0.79375,1.041797 -0.14883,0.657324 -0.14883,3.050976 v 6.498828 h -5.01055 v -16.45791 z" />
        </g>
        <g
           transform="translate(-0.52916667,-1.0583333)"
           aria-label="Attacker"
           id="g922"
           style="font-size:4.9389px;line-height:1.25;font-family:Belgium;-inkscape-font-specification:Belgium;letter-spacing:0px;word-spacing:0px;stroke:#d45500;stroke-width:0.5;stroke-miterlimit:4;stroke-dasharray:none">
          <path
             d="m 42.563831,64.343409 c -1.911246,7.752859 -3.73205,15.531661 -5.43688,23.34131 -1.71053,-0.607271 -3.401398,-1.232881 -5.073973,-1.870986 0.427305,-1.363145 0.855901,-2.725858 1.285754,-4.088144 -0.576553,-0.220696 -1.151464,-0.443028 -1.724791,-0.666748 -0.613169,1.291409 -1.227556,2.582282 -1.843112,3.872631 -1.67535,-0.655826 -3.332621,-1.321704 -4.973229,-1.991584 3.787081,-7.018284 7.546764,-14.05453 11.259271,-21.114125 2.187675,0.870924 4.355374,1.715635 6.50696,2.517646 z m -7.85139,13.390431 c 0.72487,-2.609216 1.682786,-5.804317 2.87894,-9.587616 -2.119534,4.090918 -3.600441,7.014292 -4.500273,8.960119 0.539523,0.210617 1.07995,0.419856 1.621333,0.627497 z"
             style="font-style:normal;font-variant:normal;font-weight:normal;font-stretch:normal;font-size:25.4px;font-family:Impact;-inkscape-font-specification:Impact;fill:#ffff00;stroke:#d45500;stroke-width:0.5;stroke-miterlimit:4;stroke-dasharray:none"
             id="path906"
             inkscape:original-d="m 35.004729,68.367032 2.988965,20.079394 h -5.34541 l -0.26045,-3.609082 h -1.872753 l -0.310059,3.609082 H 24.7976 l 2.654102,-20.079394 z m -2.765723,12.91084 q -0.396875,-3.410645 -0.79375,-8.421191 -0.79375,5.754687 -0.992187,8.421191 z" />
          <path
             d="m 49.694336,68.614296 -0.931604,2.924663 c 0.392213,0.125125 0.784402,0.248333 1.17659,0.369528 l -0.910076,2.946655 C 48.628172,74.731229 48.227321,74.605356 47.82667,74.477618 l -3.164781,9.935461 c -0.389397,1.222465 -0.554641,1.91916 -0.49508,2.092512 0.0671,0.174673 0.497025,0.389825 1.292773,0.634276 l -0.923157,3.004082 c -0.669068,-0.205512 -1.335046,-0.414832 -1.998007,-0.627647 -1.120086,-0.359555 -1.901357,-0.679031 -2.338939,-0.939454 -0.436699,-0.271042 -0.769108,-0.658925 -0.99616,-1.161907 -0.223854,-0.51224 -0.291633,-1.028727 -0.206919,-1.548988 0.08818,-0.530902 0.452867,-1.707921 1.095006,-3.539442 l 3.276455,-9.345164 C 43.04902,72.86937 42.730254,72.756428 42.411552,72.64257 l 1.03665,-2.906474 c 0.31358,0.11215 0.62708,0.223349 0.940513,0.333552 l 1.015992,-2.897832 c 1.43403,0.504787 2.863528,0.987231 4.289629,1.44248 z"
             style="font-style:normal;font-variant:normal;font-weight:normal;font-stretch:normal;font-size:25.4px;font-family:Impact;-inkscape-font-specification:Impact;fill:#ffff00;stroke:#d45500;stroke-width:0.5;stroke-miterlimit:4;stroke-dasharray:none"
             id="path908"
             inkscape:original-d="m 44.021233,69.793302 v 2.592089 h 1.351855 v 2.604493 h -1.351855 v 8.805664 q 0,1.624707 0.16123,1.810742 0.173633,0.186035 1.401465,0.186035 v 2.654101 h -2.021582 q -1.711523,0 -2.443262,-0.136425 -0.731738,-0.148829 -1.289843,-0.657325 -0.558106,-0.520898 -0.694531,-1.178222 -0.136426,-0.669727 -0.136426,-3.125391 V 74.989884 H 37.91928 v -2.604493 h 1.079004 v -2.592089 z" />
          <path
             d="m 56.25818,70.503225 -0.763249,2.975485 c 0.389123,0.0984 0.778001,0.19445 1.166591,0.28797 l -0.728388,3.000623 C 55.531305,76.670256 55.129588,76.570574 54.72803,76.468432 L 52.135174,86.57654 c -0.31906,1.243841 -0.443228,1.949538 -0.371287,2.120443 0.07939,0.171138 0.532083,0.366846 1.362009,0.567786 l -0.735918,3.059447 c -0.704217,-0.170894 -1.40355,-0.348955 -2.097851,-0.533605 -0.105218,-0.02798 -0.207536,-0.05582 -0.306928,-0.08349 -0.999215,-0.275285 -1.710821,-0.531516 -2.129372,-0.751451 -0.459293,-0.252165 -0.818709,-0.626286 -1.076513,-1.120043 -0.255068,-0.503174 -0.350989,-1.017208 -0.292399,-1.541086 0.06161,-0.535253 0.369675,-1.72681 0.924918,-3.586056 l 2.832377,-9.484282 c -0.320499,-0.09567 -0.640843,-0.192648 -0.961042,-0.290888 l 0.904421,-2.948383 c 0.313032,0.09605 0.626066,0.190811 0.939113,0.284226 l 0.878289,-2.940971 c 1.20822,0.360423 2.414434,0.699344 3.619337,1.013794 0.211481,0.05443 0.422768,0.10819 0.633852,0.161239 z"
             style="font-style:normal;font-variant:normal;font-weight:normal;font-stretch:normal;font-size:25.4px;font-family:Impact;-inkscape-font-specification:Impact;fill:#ffff00;stroke:#d45500;stroke-width:0.5;stroke-miterlimit:4;stroke-dasharray:none"
             id="path910"
             inkscape:original-d="m 51.760296,69.793302 v 2.592089 h 1.351856 v 2.604493 h -1.351856 v 8.805664 q 0,1.624707 0.161231,1.810742 0.173632,0.186035 1.401464,0.186035 v 2.654101 h -2.021582 q -1.711523,0 -2.443261,-0.136425 -0.731739,-0.148829 -1.289844,-0.657325 -0.558105,-0.520898 -0.694531,-1.178222 -0.136426,-0.669727 -0.136426,-3.125391 v -8.359179 h -1.079004 v -2.604493 h 1.079004 v -2.592089 z" />
          <path
             d="M 60.208174,81.758893 C 58.735787,81.495105 57.268851,81.189369 55.80923,80.848827 l 0.297516,-1.274559 c 0.342717,-1.468201 0.739956,-2.572754 1.17605,-3.305617 0.447192,-0.743435 1.123207,-1.332564 2.012705,-1.787478 0.889276,-0.454801 1.919685,-0.568485 3.112574,-0.366289 1.428,0.242048 2.444873,0.732406 3.094986,1.528978 0.648808,0.783902 1.016602,1.694444 1.074556,2.74084 0.05807,1.022811 -0.04944,3.174194 -0.332898,6.366578 l -0.864623,9.737526 c -1.82477,-0.159641 -3.626261,-0.380448 -5.402391,-0.654477 l 0.268886,-1.713027 c -0.435704,0.636631 -0.949529,1.085392 -1.538458,1.343462 -0.577753,0.249693 -1.233774,0.307641 -1.956015,0.1691 -0.944877,-0.18124 -1.750164,-0.645794 -2.399337,-1.382242 -0.641072,-0.747254 -0.720016,-2.078812 -0.271815,-3.998906 l 0.364373,-1.560975 c 0.331681,-1.420923 0.749755,-2.348183 1.239562,-2.777838 0.496944,-0.435916 1.546053,-0.818863 3.14941,-1.229787 1.704436,-0.445648 2.618394,-0.83918 2.764671,-1.076009 0.150914,-0.244335 0.288544,-0.766673 0.41614,-1.570444 0.159564,-1.00515 0.203412,-1.670114 0.134065,-1.987926 -0.06069,-0.327574 -0.222043,-0.512784 -0.485627,-0.557832 -0.300234,-0.05131 -0.510072,0.04527 -0.630063,0.292778 -0.117725,0.236744 -0.273892,0.892869 -0.46535,1.962717 z m 1.074274,2.894138 c -0.893259,0.564262 -1.454823,1.051982 -1.669106,1.494373 -0.204601,0.440764 -0.386826,1.096892 -0.542062,1.964334 -0.17798,0.994527 -0.237526,1.644195 -0.176718,1.954243 0.0692,0.310511 0.27752,0.496341 0.624808,0.554205 0.329927,0.05497 0.561299,-0.02261 0.692318,-0.229832 0.141793,-0.216373 0.288048,-0.806738 0.441768,-1.775075 z"
             style="font-style:normal;font-variant:normal;font-weight:normal;font-stretch:normal;font-size:25.4px;font-family:Impact;-inkscape-font-specification:Impact;fill:#ffff00;stroke:#d45500;stroke-width:0.5;stroke-miterlimit:4;stroke-dasharray:none"
             id="path912"
             inkscape:original-d="m 58.693205,78.363321 h -4.700488 v -1.103809 q 0,-1.90996 0.434082,-2.939355 0.446484,-1.041797 1.773535,-1.835547 1.327051,-0.79375 3.447852,-0.79375 2.54248,0 3.832324,0.905371 1.289844,0.892969 1.550293,2.207617 0.260449,1.302247 0.260449,5.382618 v 8.25996 H 60.417131 V 86.98295 q -0.458887,0.880566 -1.190625,1.327051 -0.719336,0.434082 -1.723926,0.434082 -1.314648,0 -2.418457,-0.731739 -1.091406,-0.74414 -1.091406,-3.237011 v -1.351856 q 0,-1.847949 0.58291,-2.517675 0.58291,-0.669727 2.889746,-1.562696 2.468067,-0.967383 2.641699,-1.302246 0.173633,-0.334863 0.173633,-1.364258 0,-1.289843 -0.198437,-1.674316 -0.186035,-0.396875 -0.63252,-0.396875 -0.508496,0 -0.632519,0.334863 -0.124024,0.322461 -0.124024,1.699121 z m 1.5875,2.257227 q -1.203027,0.880566 -1.401465,1.475878 -0.186035,0.595313 -0.186035,1.711524 0,1.277441 0.161231,1.649512 0.173632,0.37207 0.669726,0.37207 0.471289,0 0.607715,-0.285254 0.148828,-0.297656 0.148828,-1.537891 z" />
          <path
             d="m 78.544605,82.226938 c -1.48181,0.179956 -2.968425,0.305296 -4.45701,0.370349 l -0.09849,-2.244219 c -0.03429,-0.781319 -0.105941,-1.309203 -0.211388,-1.57826 -0.106273,-0.279924 -0.284733,-0.414818 -0.536791,-0.407417 -0.252078,0.0074 -0.418452,0.132849 -0.500495,0.379339 -0.08163,0.245248 -0.116191,0.796395 -0.100724,1.647054 l 0.167146,9.193003 c 0.01265,0.695781 0.101908,1.216672 0.272854,1.565859 0.17034,0.338599 0.416751,0.503556 0.735551,0.492342 0.373542,-0.01314 0.615782,-0.205805 0.725451,-0.573241 0.119162,-0.369383 0.152056,-1.054471 0.103342,-2.062704 l -0.111945,-2.316994 c 1.509746,-0.07358 3.013022,-0.202988 4.507439,-0.383442 0.179417,1.54921 0.268771,2.710673 0.264934,3.502754 0.0038,0.77719 -0.198004,1.60678 -0.629482,2.478098 -0.423698,0.861211 -1.047457,1.541541 -1.871528,2.026234 -0.824812,0.474928 -1.888561,0.747636 -3.175039,0.788283 -0.624748,0.01979 -1.203355,-0.01119 -1.731569,-0.0896 0,0 -10e-7,0 -10e-7,0 -0.854919,-0.136331 -1.570107,-0.395483 -2.141911,-0.76489 -0.924265,-0.607089 -1.537083,-1.444425 -1.857052,-2.491506 -0.311798,-1.061052 -0.391749,-2.52942 -0.268697,-4.427596 l 0.357945,-5.521571 c 0.106699,-1.645911 0.317968,-2.890618 0.611569,-3.712064 0.295596,-0.827028 0.851672,-1.54267 1.638652,-2.177628 0.485356,-0.397489 1.017072,-0.674324 1.601635,-0.837051 0.361429,-0.09719 0.744911,-0.14994 1.154287,-0.160152 1.060158,-0.02644 1.984756,0.240456 2.813445,0.829004 0.826987,0.587338 1.444341,1.349251 1.825336,2.310785 0.378819,0.956042 0.692794,2.353052 0.912536,4.165229 z"
             style="font-style:normal;font-variant:normal;font-weight:normal;font-stretch:normal;font-size:25.4px;font-family:Impact;-inkscape-font-specification:Impact;fill:#ffff00;stroke:#d45500;stroke-width:0.5;stroke-miterlimit:4;stroke-dasharray:none"
             id="path914"
             inkscape:original-d="m 78.090471,78.202091 h -4.725293 v -1.897559 q 0,-0.992187 -0.16123,-1.339453 -0.161231,-0.359668 -0.595313,-0.359668 -0.434082,0 -0.58291,0.310059 -0.148828,0.310058 -0.148828,1.389062 v 7.763867 q 0,0.880567 0.223242,1.327051 0.223242,0.434082 0.657324,0.434082 0.508496,0 0.682129,-0.458887 0.186035,-0.458887 0.186035,-1.736328 v -1.95957 h 4.464844 q -0.0124,1.971972 -0.148828,2.96416 -0.124023,0.979785 -0.830957,2.021582 -0.694531,1.029394 -1.823145,1.562695 -1.128613,0.520899 -2.790527,0.520899 -2.120801,0 -3.361035,-0.719336 -1.240234,-0.731739 -1.761133,-2.033985 -0.508496,-1.314648 -0.508496,-3.720703 v -4.675683 q 0,-2.095996 0.42168,-3.162598 0.42168,-1.066601 1.79834,-1.897558 1.37666,-0.84336 3.348632,-0.84336 1.959571,0 3.348633,0.830957 1.389063,0.830957 1.847949,2.095996 0.458887,1.265039 0.458887,3.584278 z" />
          <path
             d="m 87.850411,72.76238 c 0.02473,0.400494 0.04827,0.801215 0.07061,1.202165 0.131669,2.251492 0.219473,4.512174 0.260259,6.780123 1.19699,2.324471 2.445282,4.628205 3.740921,6.909571 0.683367,1.209816 1.378261,2.414362 2.084119,3.613824 -0.314003,0.09586 -0.628954,0.190554 -0.944862,0.284045 -1.371152,0.406078 -2.760843,0.779422 -4.167466,1.116837 -1.223007,-2.619623 -2.392509,-5.258461 -3.504933,-7.914991 l 1.810187,8.302151 c -1.819768,0.394947 -3.666296,0.728746 -5.536201,0.994638 l -3.39375,-23.536728 c 1.277737,-0.188501 2.565379,-0.428272 3.859545,-0.712551 l 2.129633,9.767237 c 0.06743,-1.960848 0.09485,-3.918434 0.08448,-5.871388 1.083757,-0.259996 2.167189,-0.547632 3.248691,-0.859697 0.08626,-0.02492 0.172518,-0.05 0.25877,-0.07524 z"
             style="font-style:normal;font-variant:normal;font-weight:normal;font-stretch:normal;font-size:25.4px;font-family:Impact;-inkscape-font-specification:Impact;fill:#ffff00;stroke:#d45500;stroke-width:0.5;stroke-miterlimit:4;stroke-dasharray:none"
             id="path916"
             inkscape:original-d="m 90.356388,71.988516 -2.033985,6.56084 2.641699,9.89707 h -4.824511 l -1.562696,-7.168554 v 7.168554 H 79.566349 V 68.367032 h 5.010546 v 8.433594 l 1.562696,-4.81211 z" />
          <path
             d="m 102.41092,78.252586 c -1.94872,0.802761 -3.91588,1.569056 -5.905205,2.284109 l 1.426143,3.965806 c 0.298307,0.829531 0.541535,1.344511 0.73207,1.546928 0.190127,0.201983 0.433634,0.24956 0.728884,0.141563 0.367068,-0.134265 0.551388,-0.380626 0.553635,-0.736591 0.0065,-0.368805 -0.160769,-1.005434 -0.501438,-1.913543 l -0.902788,-2.406502 c 1.462599,-0.548041 2.912249,-1.121037 4.350409,-1.713185 l 0.54892,1.331644 c 0.45959,1.114903 0.75117,1.994636 0.87369,2.644079 0.12996,0.644908 0.11389,1.399311 -0.0577,2.260076 -0.17169,0.861261 -0.54096,1.604483 -1.11088,2.225467 -0.5649,0.608137 -1.38732,1.11714 -2.46737,1.512718 -1.047742,0.383742 -2.045117,0.541822 -2.975122,0.476439 -0.930035,-0.06538 -1.722358,-0.326234 -2.370176,-0.775424 -0.642869,-0.461429 -1.159861,-1.027079 -1.556168,-1.693164 -0.400133,-0.676966 -0.809518,-1.70449 -1.238123,-3.090772 l -1.678912,-5.430283 c -0.502373,-1.624878 -0.725419,-2.965764 -0.683267,-4.00195 0.03933,-1.048421 0.352637,-1.939796 0.934852,-2.681153 0.580003,-0.751787 1.343067,-1.296625 2.30797,-1.649404 1.180097,-0.431456 2.264336,-0.511099 3.268497,-0.223508 1.007397,0.275658 1.869628,0.827885 2.579976,1.670232 0.712305,0.828625 1.436223,2.11812 2.156273,3.864893 z M 96.740805,77.072523 96.243199,75.73764 c -0.352037,-0.944378 -0.619849,-1.540734 -0.800729,-1.786134 -0.18131,-0.245982 -0.393192,-0.323723 -0.636359,-0.234404 -0.300351,0.110325 -0.44328,0.297075 -0.42874,0.562555 0.01118,0.255441 0.202209,0.900858 0.573004,1.931959 l 0.482005,1.340359 c 0.436875,-0.157169 0.873002,-0.317043 1.308425,-0.479452 z"
             style="font-style:normal;font-variant:normal;font-weight:normal;font-stretch:normal;font-size:25.4px;font-family:Impact;-inkscape-font-specification:Impact;fill:#ffff00;stroke:#d45500;stroke-width:0.5;stroke-miterlimit:4;stroke-dasharray:none"
             id="path918"
             inkscape:original-d="m 103.06879,80.508927 h -6.486426 v 3.559472 q 0,1.116211 0.161231,1.438672 0.16123,0.322461 0.620117,0.322461 0.570508,0 0.756543,-0.42168 0.198437,-0.434082 0.198437,-1.661914 v -2.17041 h 4.750098 v 1.21543 q 0,1.525488 -0.19844,2.344043 -0.18603,0.818554 -0.89297,1.74873 -0.70693,0.930176 -1.79834,1.401465 -1.079,0.458887 -2.716109,0.458887 -1.5875,0 -2.80293,-0.458887 -1.21543,-0.458887 -1.897559,-1.252637 -0.669726,-0.806152 -0.930175,-1.761133 -0.26045,-0.967382 -0.26045,-2.802929 V 77.66879 q 0,-2.158008 0.582911,-3.398242 0.58291,-1.252637 1.90996,-1.909961 1.327051,-0.669727 3.050977,-0.669727 2.108398,0 3.472655,0.806153 1.37666,0.79375 1.92236,2.1208 0.55811,1.314649 0.55811,3.708301 z M 98.045841,77.83002 v -1.203027 q 0,-1.277441 -0.136426,-1.649512 -0.136426,-0.37207 -0.558106,-0.37207 -0.520898,0 -0.644921,0.322461 -0.124024,0.310058 -0.124024,1.699121 v 1.203027 z" />
          <path
             d="m 104.21415,66.470036 c 0.29357,0.802918 0.58659,1.606076 0.87906,2.409479 -0.12477,-1.952906 0.36924,-3.240444 1.50574,-3.880268 l 2.87465,6.231585 c -0.79981,0.368505 -1.32657,0.769665 -1.58098,1.208035 -0.25428,0.438147 -0.31709,0.918028 -0.18685,1.439824 0.12597,0.511886 0.57752,1.632912 1.35344,3.356997 l 3.16166,7.025158 c -1.53089,0.690588 -3.08376,1.371814 -4.66032,2.036869 L 99.958375,68.33264 c 1.414225,-0.600031 2.832245,-1.22317 4.255775,-1.862604 z"
             style="font-style:normal;font-variant:normal;font-weight:normal;font-stretch:normal;font-size:25.4px;font-family:Impact;-inkscape-font-specification:Impact;fill:#ffff00;stroke:#d45500;stroke-width:0.5;stroke-miterlimit:4;stroke-dasharray:none"
             id="path920"
             inkscape:original-d="m 109.72885,71.988516 -0.19844,2.158008 q 1.09141,-2.319238 3.1626,-2.455664 v 5.791895 q -1.37666,0 -2.02158,0.37207 -0.64492,0.37207 -0.79375,1.041797 -0.14883,0.657324 -0.14883,3.050976 v 6.498828 h -5.01055 v -16.45791 z" />
        </g>
      </g>
    </g>
  </g>
</svg>
